<svg version="1.1" xmlns="http://www.w3.org/2000/svg" xmlns:xlink="http://www.w3.org/1999/xlink" width="25" height="24" viewBox="0,0,256,245.75"><g fill="#f2f7fc" fill-rule="nonzero" stroke="none" stroke-width="1" stroke-linecap="butt" stroke-linejoin="miter" stroke-miterlimit="10" stroke-dasharray="" stroke-dashoffset="0" font-family="none" font-weight="none" font-size="none" text-anchor="none" style="mix-blend-mode: normal"><g transform="translate(0,-0.005) scale(10.24,10.24)"><path d="M21.5,2h-15c-0.53043,0 -1.03914,0.21071 -1.41421,0.58579c-0.37508,0.37507 -0.58579,0.88378 -0.58579,1.41421v3h-2v2h2v2h-2v2h2v2h-2v2h2v3c0,0.5304 0.21071,1.0391 0.58579,1.4142c0.37507,0.3751 0.88378,0.5858 1.41421,0.5858h15c0.2652,0 0.5196,-0.1054 0.7071,-0.2929c0.1875,-0.1875 0.2929,-0.4419 0.2929,-0.7071v-18c0,-0.26522 -0.1054,-0.51957 -0.2929,-0.70711c-0.1875,-0.18753 -0.4419,-0.29289 -0.7071,-0.29289zM13.5,4.999c1.648,0 3,1.351 3,3c-0.0029,0.79485 -0.3199,1.55633 -0.8818,2.1185c-0.562,0.5621 -1.3234,0.8793 -2.1182,0.8825c-1.647,0 -3,-1.353 -3,-3.001c0,-1.649 1.353,-3 3,-3zM19.5,18h-12v-0.75c0,-2.219 2.705,-4.5 6,-4.5c3.295,0 6,2.281 6,4.5z"></path></g></g></svg>